<svg id="shopping"
xmlns="http://www.w3.org/2000/svg"
 viewBox="0 0 512 512">
 <path d="M506.34 109.739c4.802 5.883 6.663 13.526 5.141 20.956l-35.173 170.674c-2.388 11.641-12.747 20.076-24.614 20.076h-310.9l7.404 35.915h301.159c6.952 0 12.571 5.632 12.571 12.571s-5.619 12.571-12.571 12.571H148.198c-11.879 0-22.225-8.435-24.626-20.063L62.742 67.174 7.568 43.214c-6.373-2.753-9.29-10.157-6.524-16.531s10.17-9.29 16.531-6.524l55.186 23.947a25.173 25.173 0 0 1 14.607 17.989l7.907 38.391h391.581c7.58.001 14.695 3.37 19.484 9.253zm-54.645 186.563l35.161-170.674H100.454l35.161 170.674h316.08z" fill="#1e0478"/>
 <path d="M486.855 125.629l-35.161 170.674h-316.08l-35.161-170.674h386.402zm-90.572 52.696c0-6.939-5.619-12.571-12.571-12.571h-180.14c-6.952 0-12.571 5.632-12.571 12.571s5.619 12.571 12.571 12.571h180.14c6.952 0 12.571-5.632 12.571-12.571zm-9.805 65.281c0-6.939-5.619-12.571-12.571-12.571H213.378c-6.952 0-12.571 5.632-12.571 12.571s5.619 12.571 12.571 12.571h160.529c6.951-.001 12.571-5.632 12.571-12.571z"/>
 <g fill="#1e0478">
 <path d="M372.625 402.827c24.84 0 45.029 20.201 45.029 45.029 0 24.827-20.189 45.029-45.029 45.029-24.827 0-45.029-20.201-45.029-45.029 0-24.827 20.201-45.029 45.029-45.029zm19.887 45.029c0-10.962-8.913-19.887-19.887-19.887-10.962 0-19.887 8.925-19.887 19.887s8.925 19.887 19.887 19.887c10.974 0 19.887-8.925 19.887-19.887zM383.712 165.755c6.952 0 12.571 5.632 12.571 12.571s-5.619 12.571-12.571 12.571h-180.14c-6.952 0-12.571-5.632-12.571-12.571s5.619-12.571 12.571-12.571h180.14z"/>
 </g><path d="M372.625 427.969c10.974 0 19.887 8.925 19.887 19.887s-8.913 19.887-19.887 19.887c-10.962 0-19.887-8.925-19.887-19.887s8.925-19.887 19.887-19.887z" fill="#9b8ccc"/>
 <g fill="#1e0478"><path d="M373.907 231.035c6.952 0 12.571 5.632 12.571 12.571s-5.619 12.571-12.571 12.571H213.378c-6.952 0-12.571-5.632-12.571-12.571s5.619-12.571 12.571-12.571h160.529zM214.685 402.827c24.827 0 45.029 20.201 45.029 45.029 0 24.827-20.201 45.029-45.029 45.029s-45.029-20.201-45.029-45.029c0-24.827 20.202-45.029 45.029-45.029zm19.887 45.029c0-10.962-8.925-19.887-19.887-19.887s-19.887 8.925-19.887 19.887 8.925 19.887 19.887 19.887 19.887-8.925 19.887-19.887z"/>
 </g><path d="M214.685 427.969c10.962 0 19.887 8.925 19.887 19.887s-8.925 19.887-19.887 19.887-19.887-8.925-19.887-19.887 8.925-19.887 19.887-19.887z" fill="#9b8ccc"/></svg>